/* XPM */
static char *_0899a8a8cad4a51f9f818b17090795dephRNC981I8rmzAi[] = {
/* columns rows colors chars-per-pixel */
"50 50 162 2 ",
"   c None",
".  c #6E2D3B",
"X  c #4B3758",
"o  c #563B56",
"O  c #583D5E",
"+  c #354671",
"@  c #7D425A",
"#  c #4F436A",
"$  c #504063",
"%  c #51436B",
"&  c #5D4666",
"*  c #4D4773",
"=  c #564D7B",
"-  c #604768",
";  c #654968",
":  c #704D69",
">  c #7E496B",
",  c #6B526F",
"<  c #614D79",
"1  c #665377",
"2  c #6F5075",
"3  c #665578",
"4  c #6D5178",
"5  c #75527D",
"6  c #B01D1D",
"7  c #AC2022",
"8  c #893648",
"9  c #85394C",
"0  c #973445",
"q  c #913A4B",
"w  c #843C51",
"e  c #8D3B53",
"r  c #873F5E",
"t  c #883F59",
"y  c #903B51",
"u  c #A03F47",
"i  c #873F60",
"p  c #824157",
"a  c #85415D",
"s  c #924053",
"d  c #A74046",
"f  c #AF4646",
"g  c #AA464A",
"h  c #B44846",
"j  c #854262",
"k  c #8A4560",
"l  c #804869",
"z  c #AA6E77",
"x  c #074986",
"c  c #0B4D8A",
"v  c #0B4C84",
"b  c #0C528F",
"n  c #15588D",
"m  c #0C5590",
"M  c #0C5897",
"N  c #155990",
"B  c #155D9B",
"V  c #1A5A98",
"C  c #365588",
"Z  c #16609F",
"A  c #18639D",
"S  c #0F5BA4",
"D  c #0E63A4",
"F  c #1563A5",
"G  c #1963A4",
"H  c #1765A9",
"J  c #1966A9",
"K  c #1E69AF",
"L  c #1A67B0",
"P  c #1968B1",
"I  c #156BBA",
"U  c #196EBB",
"Y  c #176CB1",
"T  c #2064A5",
"R  c #246CAF",
"E  c #296DAB",
"W  c #346EAE",
"Q  c #3C74AF",
"!  c #2570B6",
"~  c #2D72B3",
"^  c #2E75BC",
"/  c #2678BB",
"(  c #3175B4",
")  c #3077B8",
"_  c #3178B8",
"`  c #3A7FBE",
"'  c #555F85",
"]  c #5E5D92",
"[  c #6F5685",
"{  c #6E5885",
"}  c #675D8E",
"|  c #695D8C",
" . c #715583",
".. c #735882",
"X. c #645F92",
"o. c #506089",
"O. c #4D689A",
"+. c #5E659E",
"@. c #646096",
"#. c #62649B",
"$. c #416DA6",
"%. c #5C67A0",
"&. c #576AA7",
"*. c #5A6AA6",
"=. c #556CAB",
"-. c #5A6AA8",
";. c #4470A9",
":. c #4471B6",
">. c #4D72B5",
",. c #4079B6",
"<. c #4472B8",
"1. c #4B75B9",
"2. c #5176B6",
"3. c #677FB0",
"4. c #1B74C5",
"5. c #1D7BC5",
"6. c #1C76C8",
"7. c #1E7DD4",
"8. c #267CC3",
"9. c #2A7CC5",
"0. c #2379C9",
"q. c #2476C2",
"w. c #3F7ECB",
"e. c #237FD3",
"r. c #437CC5",
"t. c #417ECA",
"y. c #2A81C4",
"u. c #2A86CF",
"i. c #2582C7",
"p. c #3D81C0",
"a. c #3A84CE",
"s. c #2183D4",
"d. c #2A89D7",
"f. c #2484DB",
"g. c #2188DF",
"h. c #2C8BDE",
"j. c #3485D6",
"k. c #3984D4",
"l. c #348DDD",
"z. c #1F8BE7",
"x. c #248CE5",
"c. c #2C8CE2",
"v. c #208BE8",
"b. c #2C92E6",
"n. c #2E95E9",
"m. c #3395E6",
"M. c #3599E7",
"N. c #3296E9",
"B. c #3599E8",
"V. c #3B9CE9",
"C. c #4C89C8",
"Z. c #4280CB",
"A. c #4E90CA",
"S. c #458FD0",
"D. c #4690D1",
"F. c #4C94D3",
"G. c #5197D4",
"H. c #6898CD",
"J. c #41A1EA",
"K. c #A9909E",
"L. c #ABA3B1",
"P. c #A8B4C4",
/* pixels */
"                                                                                                    ",
"                                                                                                    ",
"                                                                                                    ",
"                                                                                                    ",
"                                                                                                    ",
"                                                                                                    ",
"                                                                                                    ",
"                                                                                                    ",
"                                                                                                    ",
"                                                                                                    ",
"                                                                                                    ",
"                                                                                                    ",
"                                                                                                    ",
"                                                                                                    ",
"                                                                                                    ",
"                                                r.k.1.} q q u h f                                   ",
"                                    h g e e q e  .#.a | j.j.H.P.z                                   ",
"                                  d L.K.-.&.&.&.5 > t.=.>.>.t.m...0                                 ",
"                                    #.k i j i j 0 e @.a a j  .w.%. .2.                              ",
"                                k.+. .j.w.-.*.1.%.7 > t.-.-. .+.c.#.%.c.l.                          ",
"                            l.c.a.5 %.=.#.j k 5 5 6 e } p a #.c.c.h.h.c.c.c.l.                      ",
"                        e.s.c.c.l.r.l r { t.*.} p w w : ' ;.d.h.c.c.c.c.c.c.f.e.                    ",
"                        q.0.7.f.c.c.h.k.-.X.@ 3 y.y.9.O.j 2 ' Q h.c.c.c.f.s.4.I                     ",
"                        G.D.8.5.7.f.j.X.@ 3 9.u.c.c.c.h.c.=.l 4 Q c.f.e.4.U ~ (                     ",
"                        A.p.G.F.0.^ X.< 9.u.c.c.c.c.c.c.c.h.c.-.3 W 6.I ! ( E E                     ",
"                          V ~ ` F.3.e 9.7.f.c.c.c.c.c.c.c.c.f.7.= % ! _ E T B                       ",
"                            B F ^ O.s C.8.0.7.s.c.c.c.c.f.7.6.U % & E G B b                         ",
"                            u.5.B C 8 Q G.S.8.0.e.7.e.7.6.U ! ^ & O B b B G                         ",
"                            c.b.s.~ ; * W ` G.S.9.U I U ! ( E C & + B F J P                         ",
"                            c.J.n.z.Q 9 A D ~ ` G.a.U ( E G B X o Z G H B J                         ",
"                            b.J.B.n.:.9 8.i.F J ~ K S G B m B $ o G G B n B                         ",
"                            c.J.B.N.<.9 / g.s.5.H M x m M G P % o G G B n Z                         ",
"                            c.J.B.n.<.w 8.x.N.g.s.Y v G G H F # o F F B n B                         ",
"                            c.N.B.n.<.w i.x.M.M.n.U c G B B H # o F F B B H                         ",
"                            x.x.b.z.:.w / x.M.V.V.U c Z n B H # o G Z B H P                         ",
"                              x.x.z.:.w y.x.M.V.V.U c Z n B H # o G G G K                           ",
"                                  x.<.w 9.x.B.B.V.4.c B N B F # o G K                               ",
"                                      , i.x.N.B.b.U c F n B G # .                                   ",
"                                          h.c.b.z.U b H F G R                                       ",
"                                              h.v.U v P R                                           ",
"                                                                                                    ",
"                                                                                                    ",
"                                                                                                    ",
"                                                                                                    ",
"                                                                                                    ",
"                                                                                                    ",
"                                                                                                    ",
"                                                                                                    ",
"                                                                                                    ",
"                                                                                                    "
};
