/* XPM */
static char *e23b55bdecbe4f94dffecbbc342c7c65rDpBgmRfsM1FiHkY[] = {
/* columns rows colors chars-per-pixel */
"30 30 231 2 ",
"   c None",
".  c #001500",
"X  c #191600",
"o  c #140600",
"O  c #3C0100",
"+  c #251300",
"@  c #2C1300",
"#  c #281B00",
"$  c #3B1C00",
"%  c #3A1D06",
"&  c #3F1F14",
"*  c #2B1611",
"=  c #1D2300",
"-  c #183500",
";  c #2D2301",
":  c #262900",
">  c #332401",
",  c #3C2300",
"<  c #352D00",
"1  c #3C2B01",
"2  c #3C240C",
"3  c #3B2A0C",
"4  c #253E00",
"5  c #3B3000",
"6  c #352C19",
"7  c #382A2D",
"8  c #490000",
"9  c #442103",
"0  c #422C01",
"q  c #4B2D00",
"w  c #473403",
"e  c #563900",
"r  c #432A14",
"t  c #4A2F11",
"y  c #512D1A",
"u  c #513210",
"i  c #602F00",
"p  c #603C00",
"a  c #643301",
"s  c #6C3D13",
"d  c #473929",
"f  c #492F30",
"g  c #52373C",
"h  c #3C4300",
"j  c #4C4201",
"k  c #4B4B00",
"l  c #574600",
"z  c #5D4B00",
"x  c #564B02",
"c  c #5E5900",
"v  c #585400",
"b  c #54500D",
"n  c #6C4303",
"m  c #6A4A00",
"M  c #674407",
"N  c #714800",
"B  c #685800",
"V  c #6A4814",
"C  c #685C16",
"Z  c #78560A",
"A  c #4C6B1A",
"S  c #6A6504",
"D  c #776602",
"F  c #6E7A00",
"G  c #7D6619",
"H  c #7F731F",
"J  c #4B412A",
"K  c #504A30",
"L  c #544C32",
"P  c #615736",
"I  c #735032",
"U  c #68552C",
"Y  c #717222",
"T  c #5A4143",
"R  c #624546",
"E  c #695353",
"W  c #695650",
"Q  c #62694B",
"!  c #992200",
"~  c #845600",
"^  c #886803",
"/  c #8D7700",
"(  c #987603",
")  c #836716",
"_  c #917316",
"`  c #A67F01",
"'  c #877A25",
"]  c #6F8101",
"[  c #678312",
"{  c #7C9937",
"}  c #6C8947",
"|  c #898901",
" . c #978911",
".. c #A79A1C",
"X. c #B69815",
"o. c #A78D0D",
"O. c #ACA908",
"+. c #B5A708",
"@. c #B0B700",
"#. c #8E8B20",
"$. c #958C35",
"%. c #AD8B20",
"&. c #AD8B38",
"*. c #AF9431",
"=. c #95A130",
"-. c #9FB13A",
";. c #B5B030",
":. c #B8B033",
">. c #DE8400",
",. c #CA9204",
"<. c #CDA904",
"1. c #D9A704",
"2. c #CBAA15",
"3. c #D8AE1A",
"4. c #D8BC18",
"5. c #CAB50F",
"6. c #E1AD0A",
"7. c #EAB508",
"8. c #F4BA02",
"9. c #E1AD19",
"0. c #E5B81E",
"q. c #CB9A3E",
"w. c #C0A027",
"e. c #D4AB29",
"r. c #DBB62B",
"t. c #D7A438",
"y. c #D9B738",
"u. c #E7B829",
"i. c #E4B835",
"p. c #F0B437",
"a. c #CDCB00",
"s. c #D5C308",
"d. c #D5C317",
"f. c #DDDE14",
"g. c #E9CC00",
"h. c #E9C808",
"j. c #FDC503",
"k. c #FECB02",
"l. c #FECE09",
"z. c #F3CA09",
"x. c #EDD502",
"c. c #E9DA02",
"v. c #F6D302",
"b. c #FDD400",
"n. c #FEDA01",
"m. c #FCD60A",
"M. c #F4DC0B",
"N. c #F6DA04",
"B. c #EBC919",
"V. c #F3CD1B",
"C. c #F6C614",
"Z. c #EED618",
"A. c #FBDD12",
"S. c #F7D717",
"D. c #EDE20A",
"F. c #F6E402",
"G. c #FEE402",
"H. c #FEE00C",
"J. c #FEED0A",
"K. c #F5E60B",
"L. c #FFE312",
"P. c #FCEC14",
"I. c #FFE41A",
"U. c #FEED1B",
"Y. c #F3E719",
"T. c #FBF61A",
"R. c #DAD723",
"E. c #D4C832",
"W. c #E7C72A",
"Q. c #F7CD27",
"!. c #F4D623",
"~. c #FFD525",
"^. c #FCD924",
"/. c #F9D82A",
"(. c #E9CA39",
"). c #E9D937",
"_. c #FBDB3A",
"`. c #E3DD2F",
"'. c #DBE429",
"]. c #E6E42B",
"[. c #EDE32A",
"{. c #FAE729",
"}. c #FAF423",
"|. c #E8E838",
" X c #FCE439",
".X c #FDE93A",
"XX c #FAF33C",
"oX c #F7F336",
"OX c #B69659",
"+X c #90BC44",
"@X c #B7AF4F",
"#X c #8C8074",
"$X c #C89B58",
"%X c #DBAC49",
"&X c #D5BB45",
"*X c #DDAB54",
"=X c #C1BE5F",
"-X c #CFA958",
";X c #E5B747",
":X c #E8B85C",
">X c #DBC94A",
",X c #DAD252",
"<X c #E6DA46",
"1X c #F7DB49",
"2X c #E9C851",
"3X c #E9D756",
"4X c #F3D556",
"5X c #ECE842",
"6X c #FAE745",
"7X c #EEF347",
"8X c #FFFD4D",
"9X c #F6F44E",
"0X c #EBE45C",
"qX c #E8E656",
"wX c #F3ED53",
"eX c #FDE756",
"rX c #FBF557",
"tX c #DECF6A",
"yX c #D9D36E",
"uX c #E2D473",
"iX c #ECE666",
"pX c #F4E867",
"aX c #FFFD6D",
"sX c #E7E371",
"dX c #FFE976",
"fX c #FFF975",
"gX c #FFFA84",
"hX c #FFF897",
"jX c #FFEA9C",
"kX c #FFF8A4",
"lX c #FFFDB9",
/* pixels */
"                { A [ ] F | |                               ",
"                Q 6 - = : 5 k B                             ",
"                P v k k v v x Z (   ,.>.                    ",
"          -.7 d =XsXqX|.|.|.0XiX<X).).wXiX                  ",
"          =.> # @X0X|.].oX].7X8XoX}.P.Y.XX<.!               ",
"          ' Y / tXgXrX|.oXR.O.O.a.P.J.F.U.s.D ~             ",
"      - = #.wXaXjXlXgX<X].o.# @ X._.Z.g.M.A.4.4X) O 8       ",
"      4 X | wX3XhXlXhX3X0X:.1 t &.dX_.!.S.M.5.4.( $ $       ",
"        @.,XhXkXdXpXtXD ' b * f I Z ^ (.!.A.g.h.3._ OX_     ",
"        9XaXkXkX3X3X>X> ; 2 f 6 % % e y./.L.v.I.Q.e.-XV ~   ",
"      }.7X8XfXgX1X1XtXe w 5 C < v z B 4.S.v.v.n.C.u.:Xs 9 P ",
"      8XXX].`. X X(.&Xq 5 C yX,XE.).4.{.H.J.n.n.7.9.:Xs % R ",
"      9XXX{.D.x.h.6X4Xe 1 C wX'.f.}.c.M.v.n.n.b.j.3.*XV & g ",
"    X.|.[.P.G.G.m.V.u.^ G ' :.O.a.K.x.A.P.n.b.n.l.9.%XV r T ",
"    D 9XU.G.v.v.U.z.^. XeX*.1 # +.Z.Q.Q.^.j.j.b.k.6.t.m > J ",
"  u z eXP.F.n.G.n.n.H.A.[...$ 0 ..eXeXQ.~.A.n.b.8.6.;Xm > K ",
"  ; S qX[.J.G.N.n.G.n.m.h.d.;...#.S / W.^.k.n.k.0.p.t.N r L ",
"  # c pXoXD.x.G.n.b.l.~. X|.|.iXY : w E.{.n.b.m.8.p.:Xs # J ",
"  ; S wXoXT.c.G.A.~.1Xi.2X>X>XyXU ; j >X^.n.n.k.8.6.;Xm 1 K ",
"  5 v qX].T.c.G.z.~.i.N m m v j J < l >XB.H.n.b.j.<.y.m 0 P ",
"  + x sX8XY.c.J.H.{.u.q , 1 0 # t @ , y.{.L.v.H.z.0.;XM o A ",
"    $.@X;.R.D.F.x.M.B.^ ) V 3 r U ) ^ (./.M.g.z.<.o.&.    +X",
"      h > | oXD.G.N.P.S.1X*.9 e %.1X_./.S.B.4.r.( % B       ",
"      . + $.aX6XM.x.n.A.6Xw.$ 9 <.^.^.S..XW.r.uX  l 1       ",
"            H  .2.V.h.8.V.3.o.` 1.8.C.C.u.y.                ",
"            o % *.e.u.0.u.e.e.u.7.7.1.u.>X                  ",
"                  $X*X%Xt.t.%X;Xt.p.t.:XyX    v             ",
"                    ^ s a n m a i i i n G $.                ",
"                      p 9 r r @ y y 9 r + P                 ",
"                          } E E T R E E R #X                "
};
