/* XPM */
static char *a0bf16478d6a4d8985b3f4c13bbfefa9dFy9kgcwRaVNZQfi[] = {
/* columns rows colors chars-per-pixel */
"50 50 15 1 ",
"  c #33B033",
". c #34B234",
"X c #33B133",
"o c #34B134",
"O c #30AB30",
"+ c #2DA62D",
"@ c #2CA32C",
"# c #32AE32",
"$ c #32AF32",
"% c #2DA52D",
"& c #2EA62E",
"* c #31AC31",
"= c #2A9F2A",
"- c #289D28",
"; c white",
/* pixels */
" .X   .X   .X   .X   .X   .X   .X   .X   .X   .X X",
"o O+ o O+ o O+ o O+ o O+ o O+ o O+ o O+ o O+ o O+ ",
"@# #$%# #$%# #$%# #$%# #$%# #$%# #$%# #$%# #$%# # ",
"% $ $& $ $& $ $& $ $& $ $& $ $& $ $& $ $& $ $& $ o",
"o*=#Xo*=#Xo*=#Xo*=#Xo*=#Xo*=#Xo*=#Xo*=#Xo*=#Xo*=#o",
" X#   X#   X#   X#   X#   X#   X#   X#   X#   X#  ",
"o O+ o O+ o O+ o O+ o O+ o O+ o O+ o O+ o O+ o O+ ",
"@# #$%# #$%# #$%# #$%# #$%# #$%# #$%# #$%# #$%# # ",
"% $ $& $ $& $ $& $ $& $ $& $ $& $ $& $ $& $ $& $ o",
"o*=#Xo*=#Xo*=#Xo*=#Xo*=#Xo*=#Xo*=#Xo*=#Xo*=#Xo*=#o",
" X#   X#   X#   X#   X#   X#   X#   X#   X#   X#  ",
"o O+ o O+ o O+ o O+ o O+ o O+ o O+ o O+ o O+ o O+ ",
"@# #$%# #$%# #$%# #$%# #$%# #$%# #$%# #$%# #$%# # ",
"% $ $& $ $& $ $& $ $& $ $& $ $& $ $& $ $& $ $& $ o",
"o*=#Xo*=#Xo*=#Xo*=#Xo*=#Xo*=#Xo*=#Xo*=#Xo*=#Xo*=#o",
" X#   X#   X#   X#   X#   X#   X#   X#   X#   X#  ",
"o O+ o O+ o O+ o O+ o O+ o O+ o O+ o O+ o O+ o O+ ",
"@# #$%# #$%# #$%# #$%# #$%# #$%# #$%# #$%# #$%# # ",
"% $ $& $ $& $ $& $ $& $ $& $ $& $ $& $ $& $ $& $ o",
"o*=#Xo*=#Xo*=#Xo*=#Xo*=#Xo*=#Xo*=#Xo*=#Xo*=#Xo*=#o",
" X#   X#   X#   X#   X#   X#   X#   X#   X#   X#  ",
"o O+ o O+ o O+ o O+ o O+ o O+ o O+ o O+ o O+ o O+ ",
"@# #$%# #$%# #$%# #$%# #$%# #$%# #$%# #$%# #$%# # ",
"% $ $& $ $& $ $& $ $& $ $& $ $& $ $& $ $& $ $& $ o",
"o*=#Xo*=#Xo*=#Xo*=#Xo*=#Xo*=#Xo*=#Xo*=#Xo*=#Xo*=#o",
" X#   X#   X#   X#   X#   X#   X#   X#   X#   X#  ",
"o O+ o O+ o O+ o O+ o O+ o O+ o O+ o O+ o O+ o O+ ",
"@# #$%# #$%# #$%# #$%# #$%# #$%# #$%# #$%# #$%# # ",
"% $ $& $ $& $ $& $ $& $ $& $ $& $ $& $ $& $ $& $ o",
"o*=#Xo*=#Xo*=#Xo*=#Xo*=#Xo*=#Xo*=#Xo*=#Xo*=#Xo*=#o",
" X#   X#   X#   X#   X#   X#   X#   X#   X#   X#  ",
"o O+ o O+ o O+ o O+ o O+ o O+ o O+ o O+ o O+ o O+ ",
"@# #$%# #$%# #$%# #$%# #$%# #$%# #$%# #$%# #$%# # ",
"% $ $& $ $& $ $& $ $& $ $& $ $& $ $& $ $& $ $& $ o",
"o*=#Xo*=#Xo*=#Xo*=#Xo*=#Xo*=#Xo*=#Xo*=#Xo*=#Xo*=#o",
" X#   X#   X#   X#   X#   X#   X#   X#   X#   X#  ",
"o O+ o O+ o O+ o O+ o O+ o O+ o O+ o O+ o O+ o O+ ",
"@# #$%# #$%# #$%# #$%# #$%# #$%# #$%# #$%# #$%# # ",
"% $ $& $ $& $ $& $ $& $ $& $ $& $ $& $ $& $ $& $ o",
"o*=#Xo*=#Xo*=#Xo*=#Xo*=#Xo*=#Xo*=#Xo*=#Xo*=#Xo*=#o",
" X#   X#   X#   X#   X#   X#   X#   X#   X#   X#  ",
"o O+ o O+ o O+ o O+ o O+ o O+ o O+ o O+ o O+ o O+ ",
"@# #$%# #$%# #$%# #$%# #$%# #$%# #$%# #$%# #$%# # ",
"% $ $& $ $& $ $& $ $& $ $& $ $& $ $& $ $& $ $& $ o",
"o*=#Xo*=#Xo*=#Xo*=#Xo*=#Xo*=#Xo*=#Xo*=#Xo*=#Xo*=#o",
" X#   X#   X#   X#   X#   X#   X#   X#   X#   X#  ",
"o O+ o O+ o O+ o O+ o O+ o O+ o O+ o O+ o O+ o O+ ",
"@# #$%# #$%# #$%# #$%# #$%# #$%# #$%# #$%# #$%# # ",
"% $ $& $ $& $ $& $ $& $ $& $ $& $ $& $ $& $ $& $ o",
" O-#oXO-#oXO-#oXO-#oXO-#oXO-#oXO-#oXO-#oXO-#oXO-#o"
};
