/* XPM */
static char *bd1969e19d5e4bddc30189fd1a25852dvycJdmV9DYNHMLdC[] = {
/* columns rows colors chars-per-pixel */
"40 50 178 2 ",
"   c None",
".  c #020202",
"X  c #0B0103",
"o  c #000B00",
"O  c #02060C",
"+  c #040C09",
"@  c #0B0B0B",
"#  c #0B0907",
"$  c #1C0A00",
"%  c #100E0B",
"&  c #140700",
"*  c #00140C",
"=  c #14110C",
"-  c #19130E",
";  c #141515",
":  c #1E1D1E",
">  c #191718",
",  c #280F00",
"<  c #2A1000",
"1  c #3C1700",
"2  c #3E1902",
"3  c #3C051E",
"4  c #062017",
"5  c #003817",
"6  c #171C27",
"7  c #0D1939",
"8  c #0A1228",
"9  c #3E0720",
"0  c #3E0D2C",
"q  c #1F2423",
"w  c #102A21",
"e  c #1F2C28",
"r  c #0B3C2C",
"t  c #003829",
"y  c #132E25",
"u  c #252524",
"i  c #2A2A2A",
"p  c #23282D",
"a  c #372A24",
"s  c #333333",
"d  c #373B3B",
"f  c #2C3531",
"g  c #4C1D00",
"h  c #511F00",
"j  c #552100",
"k  c #562708",
"l  c #682800",
"z  c #7A2F00",
"x  c #752D00",
"c  c #7D3000",
"v  c #7C0C3F",
"b  c #482920",
"n  c #46372B",
"m  c #563C2B",
"M  c #443B34",
"N  c #204B3D",
"B  c #41403E",
"V  c #544639",
"C  c #6D563F",
"Z  c #101D41",
"A  c #172A5E",
"S  c #222D4A",
"D  c #1D3678",
"F  c #791542",
"G  c #423F40",
"H  c #513E4C",
"J  c #67314A",
"K  c #17574C",
"L  c #264D40",
"P  c #3C404D",
"I  c #245C49",
"U  c #3E4553",
"Y  c #126147",
"T  c #146A4D",
"R  c #177555",
"E  c #2F755E",
"W  c #3B4A72",
"Q  c #4E4D4D",
"!  c #494744",
"~  c #4F5050",
"^  c #52545A",
"/  c #6B5A4A",
"(  c #725C46",
")  c #406358",
"_  c #7C6957",
"`  c #504E6E",
"'  c #527C6E",
"]  c #547E70",
"[  c #506265",
"{  c #6B6B6B",
"}  c #676664",
"|  c #777173",
" . c #853300",
".. c #871046",
"X. c #881046",
"o. c #9E1252",
"O. c #85124B",
"+. c #842751",
"@. c #C71867",
"#. c #C81768",
"$. c #D91971",
"%. c #F41D7E",
"&. c #E01A74",
"*. c #8E7255",
"=. c #1C8B66",
"-. c #1C8A65",
";. c #1F9B72",
":. c #029C67",
">. c #2BA77E",
",. c #2BA87E",
"<. c #44856F",
"1. c #7F807F",
"2. c #B08F6F",
"3. c #B8916B",
"4. c #A78563",
"5. c #C19A73",
"6. c #CDA278",
"7. c #D3A77B",
"8. c #223F8B",
"9. c #2F468B",
"0. c #2C51B2",
"q. c #3358B7",
"w. c #3453A4",
"e. c #5E568A",
"r. c #5C5384",
"t. c #474D8A",
"y. c #566385",
"u. c #6D7280",
"i. c #305AC5",
"p. c #3E5CCF",
"a. c #2F59C6",
"s. c #3564DB",
"d. c #3461D6",
"f. c #3869E8",
"g. c #3A6DF3",
"h. c #3D74FF",
"j. c #4E5ED6",
"k. c #4076FF",
"l. c #6761E4",
"z. c #6861E5",
"x. c #FF1E84",
"c. c #FF1F88",
"v. c #F71F81",
"b. c #F4238B",
"n. c #FC268A",
"m. c #FF288D",
"M. c #EA2185",
"N. c #2AB587",
"B. c #2BAA80",
"V. c #2DC18F",
"C. c #2AC793",
"Z. c #2BD69C",
"A. c #2CDCA1",
"S. c #2DE2A5",
"D. c #31E8AB",
"F. c #31F4B2",
"G. c #32F9B6",
"H. c #33FFBB",
"J. c #35FFC0",
"K. c gray54",
"L. c #A09FA0",
"P. c #A1A0A1",
"I. c #BBBDBD",
"U. c #E7B787",
"Y. c #F1BE8B",
"T. c #F5C18D",
"R. c #F3C699",
"E. c #F5C99B",
"W. c #F8C490",
"Q. c #D6C3AF",
"!. c #F7D6B5",
"~. c #F8D0A8",
"^. c #F5BED7",
"/. c #DDC5D0",
"(. c #FFC9E2",
"). c #FEFBF4",
"_. c #FCFCFC",
"`. c #F6F1EB",
/* pixels */
"                                                                                ",
"                                                                                ",
"                                                                                ",
"                                                                                ",
"                                . . . . . . . . . O K                           ",
"                              t ;.;.;.;.;.;.;.;.;.;.<.[                         ",
"                            . T H.H.H.H.H.H.H.H.H.J.=.+                         ",
"                          * :.A.H.H.H.H.H.H.H.H.H.H.S.V.E Q                     ",
"                        . r G.H.H.H.H.H.H.H.H.H.H.H.H.H.R w                     ",
"                        . r F.H.H.H.H.H.H.H.H.H.H.H.H.H.F.A.N G                 ",
"                        5 R G.D.V.V.V.V.V.V.V.V.N.V.V.V.C.N.w u                 ",
"                      o A.G.H.B.q q q q q : q u p u q q q q # p                 ",
"                      4 S.H.H.B.: : : : : : : : : : : : : : # u                 ",
"                    o 4 S.H.H.,.: : : : q : q : : : : : : : # p                 ",
"                    o 4 S.H.H.,.: : : : : : : q : : : : : : # u                 ",
"                    + w Z.G.H.,.: : : : : : : : : : : : : : # p                 ",
"                        L T G.B.: q q > : : : : q : : : : : X i                 ",
"                        > r G.N.f e : q : : : : : : : : : : # u                 ",
"                    i ; X r G.G.D.E > > : : > : : : > : : : # i                 ",
"                    / n H E B.Z.H.,.I I I I I I I I I I e ; . :                 ",
"              . . @ 3.R.`.I.@ T H.H.G.G.G.G.F.G.G.G.G.G.Y . . . . Q             ",
"            _ / C ( 7.E.)./.F ! =.C.H.H.H.H.H.H.H.H.C.-.' { / C C _             ",
"          . ( W.T.T.T.E.).(.n.o.. -.H.H.H.H.H.H.H.H.-.. P._.~.T.W.3.# {         ",
"          . a ( 5.W.Y.E.).(.n.$.o.H Y Y Y Y Y Y Y Y ] P.Q.!.R.U._ V X {         ",
"          # @ : 4.U.Y.R.`.^.n.n.c.F X X X X X X X X | _.!.Y.U.6.a ; . {         ",
"      ! s > : 6 s V 7.U.B J %.x.x.&.#.#.#.@.#.@.#.#.+.d 2.Y.( M u : > p d       ",
"      ; # : : : > : 4.3.= 3 %.x.x.x.x.x.x.c.x.x.x.c.... *.6.n > : : q = .       ",
"      ; # : : : @ . % - . 3 %.x.x.x.x.x.x.x.x.x.x.x.... X - # O > : 6 = .       ",
"      > + : : : = # . . . 3 %.x.x.x.x.x.x.x.x.x.x.x.... . . # + : : : ; .       ",
"      > # : q : q > # . . 3 %.x.x.x.x.x.x.x.x.x.x.x.... . . ; : : : : ; .       ",
"      > # : : : : : # . . 3 %.x.x.x.x.x.x.x.x.x.x.x.... . . > : : : : ; .       ",
"      > @ : : : : : O . . 3 %.x.x.x.x.x.x.x.x.x.x.x.... . . > : : : : ; .       ",
"        { @ @ # @ ; K.  ; 9 %.x.n.n.x.x.x.x.v.x.x.x.X.. {   d @ @ @ @ ~         ",
"          ; @ ; @ :     p 0 M.b.b.M.b.b.b.b.b.b.b.b.O.O     Q @ % % = S         ",
"                    } P q.p.l.l.l.l.l.l.l.l.l.l.l.z.j.a.W !                     ",
"                    U Z f.h.h.h.h.h.h.f.d.h.h.h.h.h.h.h.D 6                     ",
"                [ : q.f.h.h.h.h.h.h.h.A 8 d.h.h.h.h.h.h.g.s.S !                 ",
"                Q O i.k.h.h.h.h.h.s.0.` ^ w.i.h.h.h.k.h.k.g.7 >                 ",
"              O X O i.k.h.h.h.h.h.D #     s 7 f.h.k.h.h.h.g.7 . . ~             ",
"            / 2 2 2 ` e.e.e.e.t.9.y.|       u.9.9.e.e.e.e.r.b 1 2 m             ",
"      > . . g  . . . . . . . .h .             ; ,  . . . . . . . .l . . .       ",
"  b n k j h l  . . . . . . . .h .             > ,  . . . . . . . .z j j j m M   ",
"  s & x c c c c z z z z z z  .g .             ; , z c c c c c c c z c  .c 1 .   ",
"  s . $ $ $ $ $ $ $ $ $ $ $ $ & .             ; . $ $ $ $ $ $ $ $ $ $ $ $ # #   ",
"  b p i s i i i i i i i i i i i i             ; > u i i i i i i i i i i i i s   ",
"                                                                                ",
"                                                                                ",
"                                                                                ",
"                                                                                ",
"                                                                                "
};
