/* XPM */
static char *_42864b1dd064cf49ae550fce514a5b9ZWkgnHY8jOZVTDYM[] = {
/* columns rows colors chars-per-pixel */
"50 50 169 2 ",
"   c None",
".  c #D16F00",
"X  c #D27202",
"o  c #D67A04",
"O  c #DA7D03",
"+  c #D67C09",
"@  c #DC8205",
"#  c #DC8907",
"$  c #D7810D",
"%  c #D8820C",
"&  c #D98611",
"*  c #DB8813",
"=  c #DE951C",
"-  c #E18503",
";  c #E58B04",
":  c #E88D01",
">  c #E18708",
",  c #EC9404",
"<  c #EE9C06",
"1  c #E19408",
"2  c #E49C0B",
"3  c #ED9D0B",
"4  c #F29E04",
"5  c #E69F10",
"6  c #E0961D",
"7  c #E6A30C",
"8  c #EAA60C",
"9  c #EAAB0C",
"0  c #F4A305",
"q  c #F4A907",
"w  c #F3A40D",
"e  c #F5AC09",
"r  c #EEB30C",
"t  c #F6B40B",
"y  c #F8B10B",
"u  c #F3BB0D",
"i  c #F9BC0E",
"p  c #E6A312",
"a  c #E7A814",
"s  c #EAAC13",
"d  c #E6A51A",
"f  c #E7A91C",
"g  c #E9AC1B",
"h  c #F3A711",
"j  c #F4AB15",
"k  c #F4AE1A",
"l  c #EEB412",
"z  c #EAB21F",
"x  c #EEBB1E",
"c  c #F0B711",
"v  c #F3BC11",
"b  c #F9BC12",
"n  c #F4B31D",
"m  c #DF9920",
"M  c #E29F22",
"N  c #E6A620",
"B  c #E8AD27",
"V  c #E6A829",
"C  c #F0AF20",
"Z  c #EBB324",
"A  c #EAB22D",
"S  c #EFBD2D",
"D  c #F3B623",
"F  c #F6BB25",
"G  c #F5BE2A",
"H  c #EAB431",
"J  c #ECBB35",
"K  c #EEBE39",
"L  c #F5C20E",
"P  c #F9C20F",
"I  c #F6C311",
"U  c #FAC511",
"Y  c #FACD14",
"T  c #FBCC14",
"R  c #FBCF15",
"E  c #F9CC14",
"W  c #FCCE14",
"Q  c #FDCF14",
"!  c #FBCB13",
"~  c #F8CB1C",
"^  c #FDD013",
"/  c #FED013",
"(  c #FDD014",
")  c #FCD015",
"_  c #FDD115",
"`  c #FED015",
"'  c #FED115",
"]  c #FFD115",
"[  c #FDD315",
"{  c #FED214",
"}  c #FED215",
"|  c #FFD215",
" . c #FED315",
".. c #FFD315",
"X. c #FCD016",
"o. c #FED116",
"O. c #FDD217",
"+. c #FED316",
"@. c #FFD316",
"#. c #FED317",
"$. c #FED415",
"%. c #FED215",
"&. c #FFD816",
"*. c #FDD319",
"=. c #EFC02D",
"-. c #F2C426",
";. c #FBCD20",
":. c #F7C42E",
">. c #F8C52F",
",. c #F8C52F",
"<. c #FDD724",
"1. c #FDD826",
"2. c #FDD92B",
"3. c #FDDB2C",
"4. c #EFC13A",
"5. c #F7C530",
"6. c #F7C632",
"7. c #F2C934",
"8. c #F7CB35",
"9. c #F3CD37",
"0. c #F7CD37",
"q. c #F6CC30",
"w. c #F8CB35",
"e. c #F1C53C",
"r. c #F3CF39",
"t. c #F5CE3B",
"y. c #F4CC3B",
"u. c #F8CD38",
"i. c #F9CF3B",
"p. c #FACF3B",
"a. c #FDDD34",
"s. c #F4D13E",
"d. c #F7D13E",
"f. c #F9D23E",
"g. c #FAD33F",
"h. c #FAD43F",
"j. c #FAD03C",
"k. c #FCDC39",
"l. c #F3CC41",
"z. c #F6D345",
"x. c #F9D540",
"c. c #F9D642",
"v. c #F8D842",
"b. c #FAD842",
"n. c #FADA44",
"m. c #F8D648",
"M. c #F7D94A",
"N. c #F9DF4A",
"B. c #FADC4C",
"V. c #FEE544",
"C. c #FCE34B",
"Z. c #FBE14C",
"A. c #FDE44C",
"S. c #FDE44F",
"D. c #FDE44D",
"F. c #FDE551",
"G. c #FEE652",
"H. c #FEE753",
"J. c #FFE753",
"K. c #FEE754",
"L. c #FFE754",
"P. c #FFE756",
"I. c #FEE653",
"U. c #FDE854",
"Y. c #FCE855",
"T. c #FEE854",
"R. c #FFE854",
"E. c #FFE955",
"W. c #FEE955",
/* pixels */
"                                                                                                    ",
"                                                                                                    ",
"                                                                                                    ",
"                                                                                                    ",
"                                                                                                    ",
"                                                                                                    ",
"                                        f 7 7 7 7 7 7 7 8                                           ",
"                                  p p p I ! ! U Y Y U U ! l p 7 f                                   ",
"                              p s I P I Q $.$.$.{ $.{ &.{ Y P L i p p                               ",
"                          7 l u U $.$.o.o.$.$.$.$.{ { { { { { $.Y L u s p                           ",
"                        l u L { $.o.$.$.i t t t t t t t t U $.$.o.o.o.-.=.A                         ",
"                      l ! $.$.{ Q i i i 0 q y y y y y y 0 y i i U o.2.A.Y.9.Z                       ",
"                    r E o.o.{ { i 4 q q q i U P P P P P y q q 0 0 U Z.L.G.L.9.Z                     ",
"                  8 Y o.o.o.{ t 4 q U U U w , , 4 , 4 , i U ! i w h c.G.L.L.G.t.p                   ",
"                  8 R o.{ o.t 4 e b 0 4 4 - X o o X X o : 4 < n 8.0 w c.G.L.L.z.a                   ",
"                l E o.o.o.t 0 e i < O o o o X X X X X X o o o # n t.w h j.G.L.A.s.f                 ",
"                9 o.{ { t 4 e i 0 O X X X 2 v 2 @ l r + X X . X > C w.w h p.L.Y.b.p                 ",
"              l L { { { q e i 3 o X . . X 9 $.9 # o.E @ . X X X X > D ,.h ,.Y.L.Z.7.B               ",
"            p r $.o.{ t 0 i t : . o 2 7 7 v $.v 9 O.X.Z V * . X . o < c.n k x.G.L.B.s               ",
"            5 r o.o.Q 0 e t 0 - . % E $.$.$.$.o.#.#.3.F.Y.J & . . o ; G F w F L.A.a.a               ",
"            g u { { Q 0 U e ; X . + c ^ [ I v v u x e.l.Z.Y.J $ X X X , j.F F D.k.X.r               ",
"          d u X.$.o.P 0 U e - . X X + I [ 2 o X X o o + J F.Y.K X X o , j.F n a.$.o.X.8             ",
"          p u o.{ ! 0 0 P e - X X X o I $.1 X X X X X X $ 4.Y.4.X X o : t.F 0 y o.o.o.9             ",
"          p u { o.! 0 U e ; X X X X o I o.2 X X X X X o H B.Y.K X X . o 3 b t q X.$.Q 9             ",
"          p u o.$.U q Q q - X X X X O I a.z.e.e.e.e.e.e.B.Y.e.* X X X X : t t e { { Q 8             ",
"          p u o.{ U 0 U q O . X X X + q.A.W.Y.W.W.W.Y.Y.Y.W.A X X X X X , i i q { { Q 9             ",
"          p u o.{ U 0 ! q O . X X . + z.Y.e.A A A A H H M.Y.l.= X X X X : i t e { { Q 9             ",
"          p u o.{ ! 0 U q ; O . X . + z.Y.M . X X X . X V M.A.S X X X O , t i e { { Q 9             ",
"          p u o.{ P 0 P e 0 # X X X + z.R.M . X X X X X @ =.a.l X X X , 0 t y q Q o.{ 9             ",
"          d c R { ! 0 0 P e - . . X * m.R.V + $ $ $ + % l X.X.9 X X X , P t 0 y o.{ R 8             ",
"            p u o.{ ! 0 P y > o . $ z.G.R.Z.M.M.M.M.v.~ X.X.9 o X X X , P y y Q o.Y 9               ",
"            p r o.{ Q 0 0 ,.D - . & B.G.G.R.R.R.R.A.1.o.o.7 o . X X , i t 4 t { o.Y 8               ",
"            p r { o.*.q.h 8.:.: . + = 6 6 l.W.l.N <.R 2 > @ X X X o 4 U e y U { { ^ 8               ",
"              z u O.k.D.k k ,.g - X . . . H V.Z # *.! % . X X . X ; t t 0 t { { Y c                 ",
"                l a.F.F.,.w k ,.C O X . X M f 1 @ 7 7 o X . X o ; y i 0 e P o.{ ! 7                 ",
"                Z z.F.U.L.,.w k w.k - O O o . . X X X # @ O O ; t i 4 q U $.{ Q u f                 ",
"                  g Z.L.L.L.6.w j u.k j w ; o O o o O t t 0 0 y i 4 q U o.o.o.L 7                   ",
"                  g M.G.G.L.G.w.w h x.b.~ e 4 4 < 4 0 0 b E ! i 4 q ! $.{ o.Y L p                   ",
"                    z n.G.L.G.F.u.0 w w 0 i ! ! ! ! ! ! e 0 0 0 q ! o.{ $.{ u f                     ",
"                      Z z.Y.Y.L.k.! ! U 0 0 q 0 0 q 0 q 4 t U U P $.{ o.o.u g                       ",
"                        Z x s.V.<.$.$.$.U i i U i P i P i Q $.$.$.$.X.v 9 z                         ",
"                            A x u o.$.$.$.$.$.$.$.$.$.$.o.$.o.o.Y r r g                             ",
"                              p s v u i W o.o.o.o.o.o.{ $.P u u v p p                               ",
"                                  p 7 p v L L L L L L L L l p 7 d                                   ",
"                                        f p p p p p p 7 p                                           ",
"                                                                                                    ",
"                                                                                                    ",
"                                                                                                    ",
"                                                                                                    ",
"                                                                                                    "
};
