/* XPM */
static char *bbc850dd033442c9b4e3f5e3d5d12c60My7F5m7d3b5n3S16[] = {
/* columns rows colors chars-per-pixel */
"50 50 162 2 ",
"   c None",
".  c #040000",
"X  c #050100",
"o  c #070000",
"O  c #060100",
"+  c #070200",
"@  c #080000",
"#  c #090000",
"$  c #080300",
"%  c #090401",
"&  c #0B0600",
"*  c #0B0603",
"=  c #0E0500",
"-  c #0F0601",
";  c #0D0900",
":  c #0E0A01",
">  c #0E0906",
",  c #100702",
"<  c #110803",
"1  c #120904",
"2  c #140B06",
"3  c #130C04",
"4  c #120D07",
"5  c #150C07",
"6  c #100B08",
"7  c #130E08",
"8  c #160D08",
"9  c #170E09",
"0  c #180F0A",
"q  c #15100A",
"w  c #15100D",
"e  c #16110E",
"r  c #17120F",
"t  c #19100B",
"y  c #1A110C",
"u  c #18130D",
"i  c #1B120D",
"p  c #1C130E",
"a  c #1A150F",
"s  c #1C150F",
"d  c #191411",
"f  c #1B1610",
"g  c #1B1613",
"h  c #1E1711",
"j  c #1C1714",
"k  c #1F1812",
"l  c #1E1913",
"z  c #1F1A14",
"x  c #1E1916",
"c  c #211813",
"v  c #221914",
"b  c #201B15",
"n  c #231A15",
"m  c #221B15",
"M  c #241B16",
"N  c #251C17",
"B  c #211C19",
"V  c #231E18",
"C  c #231E1B",
"Z  c #261D18",
"A  c #251E18",
"S  c #241F19",
"D  c #271E19",
"F  c #25201A",
"G  c #26211E",
"H  c #27221F",
"J  c #29201B",
"K  c #28211B",
"L  c #2A211C",
"P  c #28231D",
"I  c #2A231D",
"U  c #2A261D",
"Y  c #29241E",
"T  c #2A251F",
"R  c #2D241F",
"E  c #2B2620",
"W  c #2C2721",
"Q  c #2F2621",
"!  c #2C2724",
"~  c #2F2724",
"^  c #2D2822",
"/  c #2E2923",
"(  c #2F2B22",
")  c #2F2A24",
"_  c #2F2A27",
"`  c #302722",
"'  c #322924",
"]  c #312A24",
"[  c #302B25",
"{  c #342B26",
"}  c #312C26",
"|  c #322D27",
" . c #352C27",
".. c #302B28",
"X. c #342F29",
"o. c #372E29",
"O. c #382F2A",
"+. c #343027",
"@. c #35302A",
"#. c #35302D",
"$. c #39302B",
"%. c #38312B",
"&. c #3A312C",
"*. c #38332D",
"=. c #39342E",
"-. c #3A352F",
";. c #393431",
":. c #3B3633",
">. c #3F3631",
",. c #3C3734",
"<. c #3D3834",
"1. c #3F3A34",
"2. c #3F3A37",
"3. c #413833",
"4. c #423934",
"5. c #433A35",
"6. c #423B35",
"7. c #403B37",
"8. c #443B36",
"9. c #423D37",
"0. c #453C37",
"q. c #443D37",
"w. c #413C39",
"e. c #45403C",
"r. c #47423C",
"t. c #46413E",
"y. c #4B423D",
"u. c #4D4842",
"i. c #514843",
"p. c #524B45",
"a. c #55504A",
"s. c #58534D",
"d. c #5A554F",
"f. c #5B5653",
"g. c #5E5953",
"h. c #605B55",
"j. c #635F54",
"k. c #615C56",
"l. c #66615B",
"z. c #6A615A",
"x. c #6B675C",
"c. c #69645E",
"v. c #6A655F",
"b. c #6B6660",
"n. c #6A6562",
"m. c #6B6663",
"M. c #6D6864",
"N. c #736C62",
"B. c #716C66",
"V. c #75706A",
"C. c #77706A",
"Z. c #79706B",
"A. c #79756A",
"S. c #7A756F",
"D. c #7D7872",
"F. c #827974",
"G. c #807B77",
"H. c #85807A",
"J. c #86817D",
"K. c #87827E",
"L. c #89847E",
"P. c #8A857F",
/* pixels */
"                                                                                                    ",
"                                                                                                    ",
"                                                                                                    ",
"                                                                                                    ",
"                                                                                                    ",
"                                                                                                    ",
"                                                                                                    ",
"                                                                                                    ",
"                                                                                                    ",
"                                                                                                    ",
"                                                                                                    ",
"                                                                                                    ",
"                1 2 o                                                               i 9 p           ",
"                9 { L                                                               $ 8.1           ",
"                Z >.i                                                               Z { q           ",
"                Q >.9                                                               c 4.1           ",
"                Z %.Y                                                               s Q k           ",
"                o k o                                                               o ] o           ",
"                                                                                                    ",
"                      g k a                       > ;.*                       F g a.                ",
"                      Y @.k                       o #.o                     D.Y T s.              L.",
"                      ^ <.a                       C :.g                     S.F >.B.              L.",
"                      k ) 4                       x H d                       b ^ C.                ",
"                      W @.b                       B ;.B                       s Y l.                ",
"                      ^ } Y                       * 2.6                       B =.s.                ",
"                      ^ ^ Y                       j ^ g                       E Y n.                ",
"                      Y } b                       H ^ w                     L.E ^ b.                ",
"                      f ^ b                       w x *                     H.} } k.                ",
"                        v.k.                      m.n.f.                      k.h.                  ",
"                              o o 9.      l.o * K.      u.o $         o q 4                         ",
"                              F =.u.      A.+.Y K.      _ <.Y         : =.7                         ",
"                              Y =.e.      x.] x M.      w.e.q         : =.7                         ",
"                              k ^ p.      N.Y k G.      9.Q Z         4 o.F                         ",
"                              ] 4.3.      z.n Q C.      q.@.Y         N %.-                         ",
"                              5 2 i.      Z.n `         y.9 t         $ n 0                         ",
"                                            F.                                                      ",
"                                    t 0 9                       5 M p                               ",
"                                    $ 8.i                       Z 8.Q                               ",
"                                    N ` -                       N &.n                               ",
"                                    - 4.J                       Z  .R                               ",
"                                    R o.N                       Q Q N                               ",
"                                    o L o                       < i Z                               ",
"                                                                                                    ",
"                                                                                                    ",
"                                                                                                    ",
"                                                                                                    ",
"                                                                                                    ",
"                                                                                                    ",
"                                                                                                    ",
"                                                                                                    "
};
