/* XPM */
static char *fd2e421e1a854838dea8df595b7487ad1UO7w6v5dVUOgIQd[] = {
/* columns rows colors chars-per-pixel */
"50 50 116 2 ",
"   c #342B22",
".  c #39342F",
"X  c #343333",
"o  c #4D361E",
"O  c #51381F",
"+  c #473320",
"@  c #4A3A2B",
"#  c #543B22",
"$  c #583E24",
"%  c #513E2C",
"&  c #453E37",
"*  c #493D31",
"=  c #5D442C",
"-  c #44403C",
";  c #4B433C",
":  c #524232",
">  c #5C4631",
",  c #5D4935",
"<  c #53463B",
"1  c #56483B",
"2  c #5C4C3C",
"3  c #634323",
"4  c #694725",
"5  c #6A4827",
"6  c #61462C",
"7  c #65492D",
"8  c #694B2C",
"9  c #714F2E",
"0  c #654C34",
"q  c #694E33",
"w  c #624E3A",
"e  c #6A5036",
"r  c #66523D",
"t  c #68523B",
"y  c #715334",
"u  c #71563B",
"i  c #795C3F",
"p  c #434141",
"a  c #4B4642",
"s  c #4E4944",
"d  c gray31",
"f  c #544B42",
"g  c #5A4E43",
"h  c #534F4C",
"j  c #5D5145",
"k  c #55504B",
"l  c #5C544B",
"z  c #555453",
"x  c #5B5652",
"c  c #5D5955",
"v  c #5D5C5B",
"b  c #665545",
"n  c #685542",
"m  c #6B5946",
"M  c #62564A",
"N  c #67594C",
"B  c #695A4B",
"V  c #725B44",
"C  c #715E4B",
"Z  c #665D53",
"A  c #695E52",
"S  c #645F59",
"D  c #7A6047",
"F  c #74614E",
"G  c #7C634B",
"H  c #6B6156",
"J  c #66615C",
"K  c #6B635C",
"L  c #746454",
"P  c #7B6754",
"I  c #7B6955",
"U  c #72665B",
"Y  c #75695C",
"T  c #7C6C5C",
"R  c #666463",
"E  c #6B6662",
"W  c #6C6965",
"Q  c #6C6B6A",
"!  c #736B63",
"~  c #7A6E62",
"^  c #726E6A",
"/  c #7D7165",
"(  c #74716D",
")  c #7C746C",
"_  c #747372",
"`  c #7A7672",
"'  c #7D7975",
"]  c #7D7B7A",
"[  c #82684D",
"{  c #836C55",
"}  c #826E5A",
"|  c #83715E",
" . c #837363",
".. c #897663",
"X. c #8A7864",
"o. c #82766A",
"O. c #84796E",
"+. c #8C7C6C",
"@. c #827B74",
"#. c #8B7E72",
"$. c #817E7B",
"%. c #85817D",
"&. c #89827B",
"*. c #968A7E",
"=. c #838281",
"-. c #898683",
";. c #8B8885",
":. c #8C8B8A",
">. c #928B83",
",. c #988C81",
"<. c #918E8B",
"1. c #989593",
"2. c #9E9892",
"3. c #9A9998",
"4. c #A09890",
"5. c gray66",
/* pixels */
"R R J Z J U &.K =.R n e r ! $.K x S Q J N 1 M 2.>.K Z J B N Z J S x @.J ( Q S N N r e q 4 6 ~ n B m ",
"J R J J m 2 ! j K o.m b n m S / ` v v v c ' K Y A N J R J J J J S R ' J R Q R c N b e 8 4 6 / b b N ",
"J J R R c K / t % T V r e e b N E =._ v ] K Z Z U A Z J R R J B j ` Q R R R Q R S b n n r 2 @.A b A ",
"R R R J J ] Z n 0 , o.m b N N Z N Z Q #.A J J S Z J Z Z J R Z b l ] R R R R R R z l N N N k ' E B Z ",
"S Z Z l ] W J Z S b Z ~ n N N N b n N G q A N N N j l r B A j M W =.R R J J J R R s k b B g ` ^ N Z ",
"S N g ` W Z R R R Z M E ! Z e q q 6 b V 0 n n n r r > 1 2 j W ] M W ] R R Z B Z S k & < M f ( ^ M b ",
"S h _ ) J J J S Z J R c R K b q = N P r q q B B N N b ; c ) I Z N g ) K Z N t t A S z p v _ =.$.^ S ",
"/ W R Z R J B t B B J R k K M j ~ T t C w w A n Z Z b j @.K Z Z m q 2 ~ A N 8 8 n A v Q $.Q S S K ~ ",
"m ; $.Z j N t q N J R R S a ! @.U Z N e m g N r n n b Z ) N N Z b A n j ! w 5 8 q b R $.R J N m A b ",
"b k *.| ! w 5 0 S K J J R c $.J R R S b t 2 < 0 q e M ^ F r r N N N n w f u 4 5 0 j ] J b r n e b t ",
"2 K G 4 V o.B 0 n Z A N x Q _ R R R Z e n w f * > g g ) e 8 8 t r m t q $ 1 n q , ) K A n e t 5 8 q ",
"g ) u 5 t B Y Y b j j 2 k =.Q R R S m r n A Z k ) ' ` K r 4 4 4 q t 8 4 4 + f g ( ! Z Z N N t 8 4 t ",
"l ' n r A Z N C E _ ' o.) ] ^ Z Z S A A Z J c ] L H Z M N q 4 8 8 8 4 4 8 6   Q ] Z n N J A b r q t ",
"Z / B S R R A b c ;.R S S d S j w Z S S S v ` U N Z Z N b g t e t q 5 8 = r ! Q K m r N J J B b n b ",
"K Y Z R J R J l _ ( R Z Z - >...E Z M w j ` ^ Z n N N n n g g r b r 0 2 U  .L M b A b b J J n n b N ",
") m n S S J A l ] K S b 0 g #.q V / ` N ^ ( Z N n t q t e 0 1 1 0 2 K ) ! Z M N b Z S A R S t 8 e n ",
">.b m N m n N K ! S Z m 0 K G 8 n Z W ^ =.R R S Z n q q e q q % h $.) J K Z n m n b l Z J Z n 0 e : ",
"] M N n r w 1 ~ t n A r 6 Y 9 q N S R c ] Q R R S N e q n n 0 g S %.R R R B n b b N b g l x j M Z J ",
") J f j Z U T L 5 8 e q > ~ 8 r Z R R R _ Q R R R S b B N n 2 $.v c =.R R J b b n b B 2 K O.} I I L ",
"A A %.@.) C q t w 6 n w b } q N R R R R J ! N A Z Z S R J l _ ( R z Q ] R Z m Z m q q = ~ V q 4 7 e ",
"B k O.t r q 5 4 q 1 g g K [ q N S S S v Q ^ j t b N S R v W ` J R R z ] Q N q b N n 7 , } q 8 8 7 q ",
"r l / e 8 5 4 4 4 w a . &.i 5 t w 0 M ] ] / ~ U j b A M R ) A S J J R v ] B 5 5 q t 0 N ) b N r e 8 ",
"A c ) m e 5 4 8 q N l a 4.V q 0 , U @.W S N e C / S k x $.Z Z Z J Z Z Z N L 5 4 4 8 , K K Z N b N b ",
"J c ( V r 8 5 q n B B k >.q = M ' ! Z S b q 8 4 q } ` =.^ R S Z A Z N r 6 r V t 0 g _ ` K R J N N N ",
"Z j Q A t 0 8 q r N Z j K M ~ o.A N b N m q 8 5 t n x R z R J m t N Z t q = l M H ) ( J H R N t t n ",
"l W -.Q M n t N S R R c h <.T e b Z Z R S S Z n m Z c <._ k b r q b N N n n s ) G n R R Z N 2 2 t b ",
") L B I ) N j R R S v Q ` H e t m A K R R R R N Z c ] Q T O.J 0 4 q t b r b Z T 7 m Z J Z N b ; k ! ",
"m r t t B ) ( z x R ' ( Z w A Z Z R R R R R R Z S R ] S m t P Y w 7 m N N 2 ! V e J R J Z n b j @.F ",
"t q t n m N ` ] ] ) K R S N M S R R R J J R Z N c ] K S Z q 4 y T B 2 M J J X.8 q N J Z N b r H Y 0 ",
"t 4 q t n Z R R ` S R R J N b b Z R R R R R J M ! ! Z R N q 4 4 8 b &./ T V m t 3 8 n J N n r ! V t ",
"e 4 4 q 0 n l _ W J R R Z n N b g l S R K R Z l } n B b n r q q 7 Z  .t q 4 o Y B 6 7 r t t , o.t t ",
"8 q q t 5 0 k $.L n N Z A N N A J z c S J A f ) V b A B r r t q = / n n B q @ *.{ / H b , 0 2 | 5 8 ",
"r t n t > H / j O.n e n Z b m Z K R h k x k Z o.b Z Z m q q q 7 b  .n N S n g ..w e C o._ j c { 7 t ",
"b A N 2 Y ~ N j Z / t t N A Z b n A c z ] ` ] j b Z Z b 5 5 8 0 E L b Z S b E Y B B N A ^ =.<.} N N ",
"N J z ` ~ Z Z N j U L t n b t e 8 r g ] _ R W ! j n N w 3 3 2 j ) Z Z R R c ' J R K S S R R v ' H b ",
"c z %.^ Z J b n t j ! B n e e q 5 2 ^ I Z J A m L k f M L Y T T K Z R R R v o.Z S R R R R Q z R W j ",
"v =.Y M Z J N n N Z l K n r b n 0 A P 0 n A t w n M >.@.G e r r B S v R R v O.m A R R R R z R :.@.( ",
"v v Z Z J R N b J J Z f B e r t b } q q b S r N n 2 o.b t n N B Z R z z z Q ~ b Z N B j l ` O.m B U ",
"=.<.v x J R J J R R J j ; Z b j  .t n r A R R Z B 2 ! n n N N Z R R R d X :.! w r 0 , U | V q e b j ",
"3._ =._ v R R R R R R Z ; ; j ) C b B N R R R Z m b ! V n n Z R R R R v z 5.Q N > N T i 0 q 8 q B ; ",
"<.R R ( ] Q c Z J J R J b   J F b N Z B J R R R Z b J C r N J J R R J J k :.R h ^  .8 4 5 q 8 5 0 * ",
"U R J J J ~ ` M b Z H N 2 N &.j 2 N Z J R R R R Z 1 W I > b H J Z B Z B w z Q :.` b q 8 8 q e 8 7 N ",
"t Z N J Z b m  .E 1 0 > H T D O.( g M R R R R R l ! | D T N j e n t t 8 0 Z <.Q R S m n q 8 q 5 6 Y ",
"8 b J J N N e 8 T %.1 U I t e e P O.R v R Q R v ` I r e e / Y , 7 q 5 5 = c Z v R R S A n q q 8 6 / ",
"e N R Q J J n t m K @.P e n 0 q 0 B ` ` J v v ] W Z N r t r F / b O 5 0 M ;.( z z R Q S b q q t 2 | ",
"j J R R J b b J m 2 T e t n b N m B S W ' Q %.R N N N m b r e u ..! @ M ) ^ =.:.] R v M n r q 6 J H ",
"Q c v J b b b N N l T 8 e t N J Z J Z Z Z W ) J N N n t e e 5 7 : ; S @.K R R R W ~ / ! N > > Y @.%.",
"` ] W l N H r t b l < O 4 8 b N Z Z Z Z n w / Z N n t b b = # ; v :.1.) S R R R S b t V I U ..u N J ",
"J R ` ] v < 0 8 2 ;.2.U : 3 8 8 r N H Z Z , T t Z l l l H Y &.*.,.O.k Z Z R R J J R B 8 4 2 { 7 b N ",
"J R J W <.`   @ ( Y C +.*.l = q e b J J J 2 Y : - J ` %.) U C b n > W ' v R J J R J N q 4 0 T e e t "
};
